<svg xmlns="http://www.w3.org/2000/svg" width="20.986" height="20.986" viewBox="0 0 20.986 20.986">
  <path id="Icon_ionic-logo-whatsapp" data-name="Icon ionic-logo-whatsapp" d="M12.933,2.25a10.263,10.263,0,0,0-10.3,10.223,10.117,10.117,0,0,0,1.478,5.279L2.25,23.236l5.7-1.812a10.32,10.32,0,0,0,15.282-8.951A10.263,10.263,0,0,0,12.933,2.25Zm5.123,14.105a2.661,2.661,0,0,1-1.822,1.174c-.483.026-.5.374-3.131-.77A10.749,10.749,0,0,1,8.76,12.653a5.052,5.052,0,0,1-.972-2.738,2.919,2.919,0,0,1,1-2.142,1.009,1.009,0,0,1,.714-.3c.207,0,.342-.006.5,0s.384-.032.583.5.677,1.834.738,1.967a.477.477,0,0,1,0,.458,1.789,1.789,0,0,1-.279.425c-.137.147-.289.33-.412.443s-.28.261-.136.528a7.884,7.884,0,0,0,1.395,1.861,7.188,7.188,0,0,0,2.066,1.373c.258.141.413.125.573-.044s.686-.738.871-.992.359-.2.6-.109,1.506.776,1.765.916.431.212.492.323A2.163,2.163,0,0,1,18.056,16.355Z" transform="translate(-2.25 -2.25)" fill="#fff"/>
</svg>
