<svg xmlns="http://www.w3.org/2000/svg" width="58.449" height="58.645" viewBox="0 0 58.449 58.645">
  <g id="Group_79" data-name="Group 79" transform="translate(0)">
    <g id="Group_72" data-name="Group 72" transform="translate(0 0)">
      <path id="Path_150" data-name="Path 150" d="M-1237.646,357.874c-.548,0-1.093-.363-2.021-1.1-.321-.254-.708-.56-1.189-.919-1.834-1.369-3.465-1.052-5.567-.456-1.99.565-3.319-.01-4.061-1.759a5.632,5.632,0,0,0-5.613-3.651,2.892,2.892,0,0,1-3.052-3.016c-.009-.129-.033-.27-.06-.419a4.906,4.906,0,0,1-.082-.634,4.4,4.4,0,0,0-2.921-4.207c-2.986-1.276-2.86-3.428-2.229-5.009a5.053,5.053,0,0,0-1.22-5.787,3.682,3.682,0,0,1-1.173-2.643,3.439,3.439,0,0,1,1.22-2.419c1.688-1.581,2.015-3.51,1.062-6.253a2.856,2.856,0,0,1,1.659-3.95c.015-.01.038-.032.064-.052a1.579,1.579,0,0,1,.4-.25c2.128-.872,3.154-2.493,3.233-5.1.065-2.163,1.184-3.354,3.149-3.354h.026a5.48,5.48,0,0,0,5.452-3.556,3.088,3.088,0,0,1,4.382-1.766h.018a1.287,1.287,0,0,1,.351.072,4.664,4.664,0,0,0,5.431-1.071,3.994,3.994,0,0,1,2.778-1.35h.044a3.556,3.556,0,0,1,2.525,1.26c1.56,1.644,3.5,1.953,6.3,1,1.926-.654,3.244-.112,3.919,1.609a5.576,5.576,0,0,0,5.649,3.813,2.851,2.851,0,0,1,3.074,3.02,1.194,1.194,0,0,0,.021.161,2.492,2.492,0,0,1,.04.374,5.059,5.059,0,0,0,3.4,5,3.057,3.057,0,0,1,1.874,4.364,5.544,5.544,0,0,0,1.325,6.376,2.9,2.9,0,0,1,.058,4.42,1,1,0,0,1-.146.184c-1.729,1.707-2.123,3.815-1.2,6.441.656,1.878.111,3.213-1.619,3.97a5.7,5.7,0,0,0-3.751,5.562,2.915,2.915,0,0,1-3.092,3.215,5.737,5.737,0,0,0-5.64,3.69,4.877,4.877,0,0,1-1.186,1.457c-.152.142-.3.276-.4.4l-.269.3-.392-.082c-.414-.087-.787-.158-1.13-.223a17.24,17.24,0,0,1-1.875-.426,4.383,4.383,0,0,0-4.24.745c-.55.389-.987.722-1.339.989C-1236.57,357.528-1237.11,357.874-1237.646,357.874Zm-6.011-4.384a5.891,5.891,0,0,1,3.637,1.25c.493.368.89.681,1.219.942a4.634,4.634,0,0,0,1.155.792h0a4.463,4.463,0,0,0,1.132-.745c.36-.273.808-.614,1.377-1.017a5.775,5.775,0,0,1,5.459-.94,15.945,15.945,0,0,0,1.723.389c.245.046.5.1.782.151l.2-.187a3.715,3.715,0,0,0,.87-1.019,7.171,7.171,0,0,1,6.9-4.5c1.18-.011,1.691-.561,1.709-1.838a7.071,7.071,0,0,1,4.588-6.822c1.051-.459,1.276-1.043.861-2.23-1.093-3.125-.587-5.769,1.505-7.859a1,1,0,0,1,.133-.17,1.543,1.543,0,0,0-.039-2.512,6.907,6.907,0,0,1-1.61-7.861c.517-1.286.2-2-1.118-2.556a6.414,6.414,0,0,1-4.257-6.268,1.084,1.084,0,0,0-.021-.164,2.667,2.667,0,0,1-.039-.34c-.041-1.161-.546-1.662-1.69-1.671a6.934,6.934,0,0,1-6.938-4.7c-.4-1.012-.945-1.212-2.17-.8-2.1.713-5.19,1.347-7.763-1.364a2.231,2.231,0,0,0-1.533-.825h-.022a2.688,2.688,0,0,0-1.8.945,6,6,0,0,1-6.869,1.4l-.022,0a1.238,1.238,0,0,1-.373-.081c-1.311-.528-2.071-.234-2.623,1.017a6.841,6.841,0,0,1-6.729,4.389h-.028c-.838,0-1.7.241-1.752,2-.095,3.139-1.474,5.276-4.1,6.352a.515.515,0,0,1-.052.046,1.664,1.664,0,0,1-.355.233,1.5,1.5,0,0,0-.923,2.223c.719,2.07,1.354,5.124-1.427,7.73a2.113,2.113,0,0,0-.779,1.441,2.364,2.364,0,0,0,.789,1.641,6.486,6.486,0,0,1,1.505,7.267c-.623,1.562-.194,2.491,1.481,3.207a5.805,5.805,0,0,1,3.767,5.426,3.8,3.8,0,0,0,.063.459,5.475,5.475,0,0,1,.077.559c.087,1.208.572,1.707,1.675,1.721a6.993,6.993,0,0,1,6.881,4.5c.465,1.095,1.069,1.337,2.394.961A11.445,11.445,0,0,1-1243.657,353.49Zm34.245-22.831h0Zm-1.093-.844h0Zm-35.642-28.223h0Zm8.487,47.852h-.028a20.728,20.728,0,0,1-14.746-6.229,20.939,20.939,0,0,1-6.181-14.942,21.21,21.21,0,0,1,20.915-20.808h.037a21.281,21.281,0,0,1,21.027,20.918,20.908,20.908,0,0,1-6.233,14.865A20.835,20.835,0,0,1-1237.66,349.444Zm-.026-1.4h.026a19.447,19.447,0,0,0,13.8-5.787,19.521,19.521,0,0,0,5.823-13.877,19.865,19.865,0,0,0-19.634-19.522h-.034a19.793,19.793,0,0,0-19.518,19.418,19.554,19.554,0,0,0,5.775,13.951A19.345,19.345,0,0,0-1237.686,348.048Z" transform="translate(1266.832 -299.229)" fill="#e8e8e8"/>
    </g>
    <path id="Path_151" data-name="Path 151" d="M-1228.509,361.957a24.515,24.515,0,0,1-24.2-24.492,24.584,24.584,0,0,1,24.23-24.064c13.205.024,24.326,11.084,24.325,24.193A24.553,24.553,0,0,1-1228.509,361.957Zm-.129-1.406a22.988,22.988,0,0,0,23.032-22.676,22.989,22.989,0,0,0-22.74-22.977,23,23,0,0,0-22.934,22.793A23.02,23.02,0,0,0-1228.639,360.551Z" transform="translate(1257.643 -308.453)" fill="#8bc7b5"/>
    <path id="Path_152" data-name="Path 152" d="M-1211.51,366.865c1.54,1.36,3.05,2.608,4.455,3.966.919.888,1.531.848,2.4-.108,2.792-3.082,5.678-6.08,8.509-9.127.369-.4.93-.954,1.211-1.292,0,0,.356.288.463.389,3.376,3.214,3.283,2.135.214,5.445-3.311,3.572-6.685,7.084-9.953,10.7-1.027,1.135-1.679,1.117-2.765.046-1.984-1.957-6.249-5.568-6.249-5.568s-1.073-1.614-.075-2.515C-1212.7,368.256-1212.2,367.614-1211.51,366.865Z" transform="translate(1232.267 -338.981)" fill="#e8e8e8"/>
  </g>
</svg>
