<svg xmlns="http://www.w3.org/2000/svg" width="50.988" height="59.698" viewBox="0 0 50.988 59.698">
  <g id="Group_80" data-name="Group 80" transform="translate(0)">
    <path id="Path_146" data-name="Path 146" d="M-988.285,314.307c.414-1.162.8-2.285,1.214-3.4a26.784,26.784,0,0,1,5.042-8.845,23.276,23.276,0,0,1,5.376-4.576,8.255,8.255,0,0,1,8.825,0,9.016,9.016,0,0,1,4.756,8.1,16.227,16.227,0,0,1-3.512,10.384,49.5,49.5,0,0,1-5.417,5.86c-.8.784-1.605,1.561-2.425,2.324-2.12,1.971-4.239,3.943-6.378,5.893-1.735,1.582-3.5,3.133-5.248,4.7-.23.206-.459.414-.747.675.473.108.867.19,1.257.287a7.9,7.9,0,0,1,4.15,2.783c.708.848,1.378,1.733,2.006,2.642a11.99,11.99,0,0,0,2.456,2.392,3.792,3.792,0,0,1,1.573,3.607c-.035.267.13.265.307.321,1.171.367,2.341.736,3.5,1.131a3.344,3.344,0,0,1,.783.441,1.766,1.766,0,0,1,.628,2.564c-1.376-1.477-3.259-1.771-5.085-2.193-.17-.039-.39-.164-.462.139-.067.286.177.273.338.358.977.516,1.964,1.015,2.914,1.576a3.692,3.692,0,0,1,.915.865,1.379,1.379,0,0,1,.339,1.291,8.3,8.3,0,0,0-.147,1.045c-1.126-1.77-2.957-2.3-4.658-3.03-.3-.128-.435-.027-.612.236a12.464,12.464,0,0,1-1.6,2.16,5.846,5.846,0,0,1-7.821.4c-.814-.6-1.6-1.224-2.481-1.895-.378.392-.769.846-1.21,1.245a7.768,7.768,0,0,1-4.069,2.062,4.129,4.129,0,0,1-3.76-1.18c-.842-.869-1.579-1.841-2.338-2.786-.171-.213-.3-.336-.568-.2-1.037.519-2.089,1.01-3.105,1.566a2.176,2.176,0,0,0-1.221,1.407,2.12,2.12,0,0,1,.526-2.855c.871-.6,1.824-1.084,2.743-1.616.13-.075.282-.112.4-.2.07-.049.1-.157.144-.239-.091-.031-.191-.1-.271-.086a7.887,7.887,0,0,0-1.068.278,24.308,24.308,0,0,0-2.276.906,6.354,6.354,0,0,0-1.082.84,1.888,1.888,0,0,1,.536-2.439,9.15,9.15,0,0,1,3.106-1.336c.61-.171.647-.166.609-.777a5.772,5.772,0,0,1,1.917-4.282c1.36-1.51,2.7-3.038,4.091-4.521a8.992,8.992,0,0,1,4.774-2.706q.14-.029.276-.069c.022-.006.038-.031.066-.057-1.222-1.078-2.449-2.14-3.654-3.228-1.946-1.757-3.9-3.508-5.809-5.3-2.518-2.362-5.031-4.732-7.486-7.159a24.368,24.368,0,0,1-5.205-7.2,17.811,17.811,0,0,1-1.608-6.443,9.32,9.32,0,0,1,4.069-8.426,7.521,7.521,0,0,1,5.438-1.344,13.589,13.589,0,0,1,8.128,3.876,29.081,29.081,0,0,1,6.4,9.817C-989.4,311.46-988.866,312.865-988.285,314.307Zm-.309,20.648c.355-.3.693-.577,1.015-.867q5.431-4.895,10.857-9.8c1.61-1.457,3.2-2.94,4.806-4.4a34.961,34.961,0,0,0,5.174-5.519,14.755,14.755,0,0,0,3.059-8.864,5.873,5.873,0,0,0-1-3.243,9.67,9.67,0,0,0-4.5-3.419,7.3,7.3,0,0,0-6.9.489,22.524,22.524,0,0,0-7.805,7.626,45.59,45.59,0,0,0-4.6,10.433.588.588,0,0,1-.1.14l-.115-.011a6.279,6.279,0,0,1-.115-1.441,2.409,2.409,0,0,0-.12-1.224,37.859,37.859,0,0,0-4.825-9.55,17.428,17.428,0,0,0-7.824-6.2,8.332,8.332,0,0,0-8.4.85,7.728,7.728,0,0,0-3.2,8.443,16.024,16.024,0,0,0,2.685,5.666,36.792,36.792,0,0,0,5.088,5.6c2.038,1.879,4.049,3.787,6.093,5.66q3.14,2.88,6.319,5.717C-991.552,332.36-990.081,333.643-988.594,334.956Zm-10.523,16.226a1.033,1.033,0,0,0,.058.184,1.9,1.9,0,0,0,.19.267,7.233,7.233,0,0,0,3.59,2.257,3.269,3.269,0,0,0,2.576-.3c.362-.219.758-.382,1.115-.606q1.318-.825,2.608-1.694a.529.529,0,0,0,.191-.425,14.256,14.256,0,0,0-.316-1.516.97.97,0,0,0-.287-.444c-.273-.245-.6-.433-.857-.692-.239-.241-.473-.551-.194-.9.264-.333.617-.252.93-.077a5.62,5.62,0,0,1,.876.6.383.383,0,0,0,.6-.013,8.953,8.953,0,0,1,.954-.7c.235-.154.514-.265.752-.025a.6.6,0,0,1-.01.826,3.062,3.062,0,0,1-.754.739,1.136,1.136,0,0,0-.62,1.134,1.751,1.751,0,0,1-.133.719.539.539,0,0,0,.166.655,11.151,11.151,0,0,0,3.255,2.242,4.017,4.017,0,0,0,2.557.328,9.086,9.086,0,0,0,4.1-2.37.949.949,0,0,0,.124-.234c-.2-.056-.37-.114-.542-.146-.872-.159-1.746-.3-2.615-.473-.145-.029-.377-.169-.382-.266-.024-.549.008-1.1.022-1.642.67-.035.67-.035.676-.623,0-.164,0-.328.008-.492.011-.258.13-.407.407-.4.832.02,1.666.02,2.5.058.621.028,1.24.1,1.978.167a5.6,5.6,0,0,0-.579-1.125,8.1,8.1,0,0,0-1.234-1.125,9.2,9.2,0,0,1-2.46-2.491c-.342-.575-.693-1.145-1.043-1.715a7,7,0,0,0-5.6-3.511,18.615,18.615,0,0,0-3.632.025,5.8,5.8,0,0,0-3.3,1.08,17.4,17.4,0,0,0-1.808,1.719c-1.193,1.333-2.338,2.708-3.5,4.064-.454.528-.942,1.028-1.361,1.581a2.5,2.5,0,0,0-.495,1.735c.138-.011.233-.01.325-.028a24.374,24.374,0,0,1,4.571-.294c.349,0,.456.12.439.45a1.521,1.521,0,0,0,.05.8,2.683,2.683,0,0,1,.211,1.642c0,.123-.215.307-.361.344-.382.1-.783.112-1.171.187C-997.4,350.823-998.252,351-999.117,351.181Zm22.906-1.675.043-.237-1.208-.176-.023.121Z" transform="translate(1014.05 -296.212)" fill="#e8e8e8"/>
    <path id="Path_147" data-name="Path 147" d="M-982.955,332.136c.089-.207.17-.371.231-.542a83.722,83.722,0,0,1,3.565-8.455,49.869,49.869,0,0,1,4.987-8.412,17.07,17.07,0,0,1,4.739-4.531,5.91,5.91,0,0,1,7.272.72,4.458,4.458,0,0,1,1.365,3.792,10.456,10.456,0,0,1-1.006,3.654,36.106,36.106,0,0,1-5.034,7.839,87.7,87.7,0,0,1-9.085,9.55,47.85,47.85,0,0,1-5.647,4.539,1.7,1.7,0,0,1-2.189-.043,51.4,51.4,0,0,1-5.666-4.646c-1.809-1.683-3.607-3.385-5.314-5.172a61.137,61.137,0,0,1-8.166-10.124,14,14,0,0,1-2.261-5.533,3.065,3.065,0,0,1,1.2-3.042,8.135,8.135,0,0,1,3.66-1.663,7.291,7.291,0,0,1,5.089,1.14,17.685,17.685,0,0,1,4.775,4.841,45.765,45.765,0,0,1,5.031,9.55c.848,2.1,1.562,4.255,2.337,6.384A.949.949,0,0,0-982.955,332.136Z" transform="translate(1008.29 -304.712)" fill="#e8e8e8"/>
    <path id="Path_148" data-name="Path 148" d="M-954.573,425.374a7.833,7.833,0,0,1,.306-1.2c.224-.521.7-.528,1-.055a2.848,2.848,0,0,1-.045,2.477c-.278.405-.672.427-.9-.016A6.781,6.781,0,0,1-954.573,425.374Z" transform="translate(975.338 -379.241)" fill="#e8e8e8"/>
    <path id="Path_149" data-name="Path 149" d="M-931.176,425.388a7.821,7.821,0,0,1-.492,1.268c-.216.364-.537.32-.786-.024a2.784,2.784,0,0,1,.014-2.6c.254-.342.627-.367.819.013A9.157,9.157,0,0,1-931.176,425.388Z" transform="translate(961.146 -379.232)" fill="#e8e8e8"/>
  </g>
</svg>
