<svg xmlns="http://www.w3.org/2000/svg" width="113.203" height="99.285" viewBox="0 0 113.203 99.285">
  <path id="Path_154" data-name="Path 154" d="M-2075.391,1743.038c-2.4.246-4.814.384-7.19.769-2.3.373-4.563,1-7.024,1.554-8.344-12.928-20.1-20.853-35.635-22.466a45.854,45.854,0,0,0-33.984,9.919c-19.146,14.934-23.431,42.487-9.784,63.028,13.37,20.125,40.869,26.759,61.688,15,23.255-13.14,28.388-39.338,21.49-56.816a66.618,66.618,0,0,0-22.587,14.394c-6.418,6.264-12.313,13.062-18.561,19.756l-29.172-22.39,9.924-11.1,17.836,13.8a82.711,82.711,0,0,1,33.271-19.377,36.312,36.312,0,0,0-11.167-12.286c-14.147-9.548-29.079-10.716-43.869-2.172-14.965,8.644-21.657,22.323-20.055,39.506,1.873,20.076,19.53,35.879,39.44,35.933,21.207.056,38.676-15,40.847-35.551a62.885,62.885,0,0,0-.506-13.056c-.2-1.941.184-2.806,2-3.137,5.467,17.47-2.319,40.94-23.784,50.658a43.211,43.211,0,0,1-56.084-19.3c-10.715-20.369-3.667-45.263,16.422-57.318,18.956-11.374,45.94-6.784,59.481,15.723,4.249-.853,8.508-1.828,12.811-2.537,4.227-.7,8.5-1.124,12.631-1.653.223.469.343.6.335.726-.273,4.2-.3,4.09-4.391,4.98-4.035.877-8.014,2.01-12.173,3.069a53.146,53.146,0,0,1,2.856,19.374c-.817,23.171-19.122,43.624-42.091,46.636-20.4,2.675-36.825-4.431-48.687-21.173-20.642-29.131-2.58-71.558,32.752-76.868,20.27-3.047,36.728,3.946,49.033,20.4a2.9,2.9,0,0,0,2.78,1.347c2.8-.094,5.6-.047,8.405.011a23.487,23.487,0,0,1,2.791.379Zm-2.029,5.055a100.768,100.768,0,0,0-24.092,6.119c-10.114,4.046-18.788,10.269-26.7,17.812l-17.7-13.66-6.25,7.054,25.21,19.326C-2113.865,1767.72-2098.734,1753.737-2077.419,1748.094Z" transform="translate(2179.82 -1719.961)" fill="#cb954b"/>
</svg>
