<svg id="Group_81" data-name="Group 81" xmlns="http://www.w3.org/2000/svg" width="54.729" height="58.298" viewBox="0 0 54.729 58.298">
  <path id="Path_143" data-name="Path 143" d="M-1534.814,394.172a50.224,50.224,0,0,1,3.065,4.206c1.273,2.174.314,3.974-2.21,4.083a47.44,47.44,0,0,1-5.5-.384c-.638,1.429-1.234,3-2.018,4.469-1.481,2.774-3.353,2.869-4.943.219a50.866,50.866,0,0,1-2.2-4.648,50,50,0,0,1-5.537.311c-2.537-.122-3.355-1.6-2.141-3.8.855-1.549,1.99-2.945,3.068-4.508-.937-1.339-2.013-2.693-2.895-4.164-1.243-2.073-.269-4.126,2.141-4.316a15.939,15.939,0,0,1,2.666.191c.882.081,1.761.183,2.644.276a54.775,54.775,0,0,1,2.479-5.1c1.256-2.042,2.914-2.077,4.2-.084a53.8,53.8,0,0,1,2.606,5.124,3.748,3.748,0,0,1,1.11.024c.052.015.1.032.155.051a1.006,1.006,0,0,1,.352,1.7.8.8,0,0,1-.123.081c-1.077.573-2.233,1-3.358,1.48l-.053.933c1.44.8,3.062,2.3,4.211,2,1.168-.307,2.123-1.425,3.1-2.522a1.652,1.652,0,0,0-.1-2.3l-.751-.708a.552.552,0,0,1-.145-.576h0a.551.551,0,0,1,.595-.374c.918.12,1.968.119,2.449.64a3.171,3.171,0,0,1,.275,2.867A39.249,39.249,0,0,1-1534.814,394.172Zm-12.3-4.932,1.036.9c1.454-1.136,3.7-2.032,4.139-3.477.37-1.211-.6-2.831-1.263-4.356a1.191,1.191,0,0,0-1.154-.722l-.117.006Zm-2.474,5.155,1.217-.6c-.265-1.765.057-4.118-.958-5.132-.788-.787-2.294-.854-3.749-.973a2.121,2.121,0,0,0-2.092,1.215h0Zm2.981,4.649.092-1.24c-1.619-.721-3.452-2.281-4.8-1.938-1.094.279-1.933,1.557-2.791,2.758a2.1,2.1,0,0,0-.055,2.378h0Zm4.606-1.236c-1.734,1.518-3.782,2.47-4.124,3.847s1.02,3.177,1.881,5.437C-1542.086,403.979-1541.09,401.595-1542.006,397.808Zm9.485,2.205-6.287-6.567C-1540.345,399.427-1538.68,401.236-1532.521,400.013Zm-12.213-2.91,1.2,0c.75-.916,2-1.762,2.139-2.764a2.24,2.24,0,0,0-2.724-2.723c-1,.213-2.4,1.493-2.459,2.365C-1546.637,394.982-1545.4,396.06-1544.733,397.1Z" transform="translate(1556.853 -350.394)" fill="#e8e8e8"/>
  <path id="Path_144" data-name="Path 144" d="M-1554.946,327.731a.669.669,0,0,1-1.3.185c-.7-2.066-.822-4.9-.17-5.552a4.075,4.075,0,0,1,2.606-.946c6.88-.11,13.764-.026,20.64-.224a5.8,5.8,0,0,0,3.815-1.681c3.416-3.891,6.643-7.956,9.783-12.076a8.245,8.245,0,0,0,1.477-3.835,8.056,8.056,0,0,1,6.483-7.268,8.217,8.217,0,0,1,8.558,4.206c1.685,3.373,1.132,7.535-1.986,9.674-3.942,2.7-4.006,7.047-5.6,10.29,1.915.878,4.537,1.273,4.957,2.451a8.843,8.843,0,0,1,.149,5.778.9.9,0,0,1-1.749-.3,24.7,24.7,0,0,1,.041-2.488c.158-1.93-.521-2.677-2.565-2.667q-21.333.107-42.667.008c-1.908-.008-2.541.711-2.448,2.525A17.081,17.081,0,0,1-1554.946,327.731Zm26.717-6.5c4.094,0,7.6-.362,10.989.1,3.466.474,4.748-1.045,5.721-3.949,1.143-3.41,2.156-6.845,5.671-9.036,2.182-1.361,2.376-4.1,1.306-6.577a6.282,6.282,0,0,0-6.062-3.642c-2.464.244-5.146,2.168-5.253,4.625-.169,3.883-2.5,6.337-4.722,9.006C-1523.063,314.746-1525.463,317.8-1528.229,321.233Z" transform="translate(1556.844 -296.212)" fill="#e8e8e8"/>
  <path id="Path_145" data-name="Path 145" d="M-1492.523,419.691c-2.591,0-5.184.062-7.771-.042h-.02a1.064,1.064,0,0,1-.17-2.084.985.985,0,0,1,.188-.024c4.553-.117,9.111-.1,13.667-.068,1.575.011,2.712-.113,2.889-2.181a4.042,4.042,0,0,1,1.94-2.553,21.416,21.416,0,0,0,9.542-10.842l.007-.018a.887.887,0,0,1,1.685.415,1.618,1.618,0,0,1-.088.445,22.021,22.021,0,0,1-8.968,11.005,5.752,5.752,0,0,0-2.042,3.285c-.424,1.807-1.3,2.647-3.087,2.647h-7.773Z" transform="translate(1520.673 -364.657)" fill="#e8e8e8"/>
  <ellipse id="Ellipse_16" data-name="Ellipse 16" cx="2.628" cy="2.628" rx="2.628" ry="2.628" transform="translate(4.085 14.727)" fill="#e8e8e8"/>
  <ellipse id="Ellipse_17" data-name="Ellipse 17" cx="2.628" cy="2.965" rx="2.628" ry="2.965" transform="translate(12.866 8.143)" fill="#e8e8e8"/>
  <ellipse id="Ellipse_18" data-name="Ellipse 18" cx="2.243" cy="2.243" rx="2.243" ry="2.243" transform="translate(4.097 1.16)" fill="#e8e8e8"/>
</svg>
