<svg xmlns="http://www.w3.org/2000/svg" width="26.471" height="39.971" viewBox="0 0 26.471 39.971">
  <g id="Group_126" data-name="Group 126" transform="translate(0)">
    <path id="Path_157" data-name="Path 157" d="M476.421,68.266l3.2-1.113,1.519,2.749c.676-1.857,1.34-3.678,2.015-5.53a12.549,12.549,0,0,1-4.8-1.415Z" transform="translate(-471.402 -37.953)" fill="none"/>
    <path id="Path_158" data-name="Path 158" d="M476.89,60.194a4.746,4.746,0,0,0,.379.349v0C477.232,60.4,477.024,60.305,476.89,60.194Z" transform="translate(-471.49 -37.435)" fill="none"/>
    <path id="Path_159" data-name="Path 159" d="M478.835,62.847l-.033.089a12.549,12.549,0,0,0,4.8,1.415l0-.013A13.314,13.314,0,0,1,478.835,62.847Z" transform="translate(-471.849 -37.932)" fill="none"/>
    <path id="Path_160" data-name="Path 160" d="M491,73.254c.518-.931,1.021-1.835,1.525-2.744l3.194,1.116-3.1-8.513a10.626,10.626,0,0,1-4.833,1.314Z" transform="translate(-473.532 -37.982)" fill="none"/>
    <path id="Path_161" data-name="Path 161" d="M492.614,63.113a13.325,13.325,0,0,1-4.833,1.314A10.626,10.626,0,0,0,492.614,63.113Z" transform="translate(-473.532 -37.982)" fill="none"/>
    <path id="Path_162" data-name="Path 162" d="M495.235,45.357a11.314,11.314,0,1,0-11.29,11.8A11.323,11.323,0,0,0,495.235,45.357Zm-17.742,1.289,1.422-1.337,4.064,4.319,5.8-9.248,1.654,1.034L483.29,52.808Z" transform="translate(-470.689 -32.624)" fill="none"/>
    <path id="Path_163" data-name="Path 163" d="M489.739,62.822l3.1,8.513-3.194-1.116c-.5.909-1.008,1.813-1.525,2.744l-3.219-8.827a15.025,15.025,0,0,1-2.5-.026c-.675,1.852-1.339,3.674-2.015,5.53l-1.519-2.749L475.675,68,477.61,62.7a9.886,9.886,0,0,1-1.689-1.134c.035.15-.1.347-.167.522l-3.15,8.639c-.054.148-.1.3-.165.481l5.519-1.927,2.8,5.053,2.894-7.937c1.379,3.784,2.737,7.508,4.107,11.269l2.8-5.057,5.531,1.93c-1.557-4.269-3.1-8.494-4.637-12.722Z" transform="translate(-470.656 -37.692)" fill="#8bc7b5"/>
    <path id="Path_164" data-name="Path 164" d="M477.2,57.016a13.275,13.275,0,0,0,4.753,1.487l0,.013a14.98,14.98,0,0,0,2.492.026,13.286,13.286,0,0,0,4.819-1.31l1.705-1.005.091-.069a13.214,13.214,0,0,0,4.409-5.316,12.984,12.984,0,0,0,.968-7.924,12.686,12.686,0,0,0-3.839-7.084,12.949,12.949,0,0,0-11.306-3.525,12.249,12.249,0,0,0-5.072,1.972,13.07,13.07,0,0,0-5.95,9.828,12.24,12.24,0,0,0,.234,4.015,13.194,13.194,0,0,0,4.58,7.479c.143.119.365.22.4.368v0a9.855,9.855,0,0,0,1.683,1.13Zm-5.035-11.2a11.28,11.28,0,1,1,11.285,10.821A11.267,11.267,0,0,1,472.166,45.817Z" transform="translate(-470.195 -32.136)"/>
    <path id="Path_165" data-name="Path 165" d="M489.908,41.73c-1.94,3.09-3.868,6.162-5.8,9.248l-4.064-4.319L478.618,48l5.8,6.162,7.147-11.394Z" transform="translate(-471.814 -33.975)" fill="#8bc7b5"/>
  </g>
</svg>
