<svg xmlns="http://www.w3.org/2000/svg" width="19.097" height="19.093" viewBox="0 0 19.097 19.093">
  <path id="Icon_awesome-instagram" data-name="Icon awesome-instagram" d="M9.546,6.889a4.9,4.9,0,1,0,4.9,4.9A4.887,4.887,0,0,0,9.546,6.889Zm0,8.078a3.183,3.183,0,1,1,3.183-3.183,3.188,3.188,0,0,1-3.183,3.183Zm6.237-8.278a1.142,1.142,0,1,1-1.142-1.142A1.139,1.139,0,0,1,15.783,6.689Zm3.242,1.159a5.65,5.65,0,0,0-1.542-4,5.688,5.688,0,0,0-4-1.542c-1.576-.089-6.3-.089-7.878,0a5.679,5.679,0,0,0-4,1.538,5.669,5.669,0,0,0-1.542,4c-.089,1.576-.089,6.3,0,7.878a5.65,5.65,0,0,0,1.542,4,5.7,5.7,0,0,0,4,1.542c1.576.089,6.3.089,7.878,0a5.65,5.65,0,0,0,4-1.542,5.688,5.688,0,0,0,1.542-4c.089-1.576.089-6.3,0-7.873Zm-2.036,9.565a3.222,3.222,0,0,1-1.815,1.815c-1.257.5-4.239.383-5.628.383s-4.375.111-5.628-.383A3.222,3.222,0,0,1,2.1,17.412c-.5-1.257-.383-4.239-.383-5.628S1.608,7.409,2.1,6.156A3.222,3.222,0,0,1,3.918,4.341c1.257-.5,4.239-.383,5.628-.383s4.375-.111,5.628.383a3.222,3.222,0,0,1,1.815,1.815c.5,1.257.383,4.239.383,5.628S17.487,16.16,16.989,17.412Z" transform="translate(0.005 -2.238)" fill="#fff"/>
</svg>
