<svg xmlns="http://www.w3.org/2000/svg" width="20.991" height="20.986" viewBox="0 0 20.991 20.986">
  <path id="Icon_awesome-instagram" data-name="Icon awesome-instagram" d="M10.492,7.35a5.381,5.381,0,1,0,5.381,5.381A5.372,5.372,0,0,0,10.492,7.35Zm0,8.879a3.5,3.5,0,1,1,3.5-3.5A3.5,3.5,0,0,1,10.492,16.229Zm6.856-9.1a1.255,1.255,0,1,1-1.255-1.255A1.252,1.252,0,0,1,17.348,7.13ZM20.912,8.4a6.211,6.211,0,0,0-1.7-4.4,6.251,6.251,0,0,0-4.4-1.7c-1.733-.1-6.926-.1-8.658,0A6.242,6.242,0,0,0,1.764,4a6.231,6.231,0,0,0-1.7,4.4c-.1,1.733-.1,6.926,0,8.658a6.211,6.211,0,0,0,1.7,4.4,6.259,6.259,0,0,0,4.4,1.7c1.733.1,6.926.1,8.658,0a6.211,6.211,0,0,0,4.4-1.7,6.251,6.251,0,0,0,1.7-4.4c.1-1.733.1-6.921,0-8.654ZM18.673,18.917a3.542,3.542,0,0,1-1.995,1.995c-1.381.548-4.659.421-6.186.421s-4.809.122-6.186-.421a3.541,3.541,0,0,1-1.995-1.995c-.548-1.381-.421-4.659-.421-6.186s-.122-4.809.421-6.186A3.541,3.541,0,0,1,4.306,4.55C5.688,4,8.966,4.128,10.492,4.128s4.809-.122,6.186.421a3.541,3.541,0,0,1,1.995,1.995c.548,1.381.421,4.659.421,6.186S19.221,17.54,18.673,18.917Z" transform="translate(0.005 -2.238)" fill="#fff"/>
</svg>
