<svg id="Group_125" data-name="Group 125" xmlns="http://www.w3.org/2000/svg" width="39.129" height="40.096" viewBox="0 0 39.129 40.096">
  <path id="Path_60" data-name="Path 60" d="M340.986,37.475H359.12c.889,0,1.3.232,1.32.744.025.537-.409.8-1.321.8H322.734c-.885,0-1.3-.235-1.32-.746-.024-.536.409-.8,1.321-.8Z" transform="translate(-321.367 -37.475)" fill="#040405"/>
  <path id="Path_61" data-name="Path 61" d="M340.142,57.406c-.035.519-.389.674-.848.674h-5.1c-.467,0-.8-.181-.856-.682a.806.806,0,0,1,.864-.769q2.554-.014,5.09.008C339.831,56.637,340.177,56.974,340.142,57.406Z" transform="translate(-322.401 -39.135)" fill="#040405"/>
  <path id="Path_62" data-name="Path 62" d="M330.906,57.363c.009.492-.277.709-.743.709-.657.008-1.322.008-1.987.008h-1.987a.7.7,0,0,1-.8-.682.735.735,0,0,1,.8-.761c1.322-.017,2.653-.017,3.975,0A.681.681,0,0,1,330.906,57.363Z" transform="translate(-321.713 -39.135)" fill="#040405"/>
  <path id="Path_63" data-name="Path 63" d="M330.906,57.363c.009.492-.277.709-.743.709-.657.008-1.322.008-1.987.008h-1.987a.7.7,0,0,1-.8-.682.735.735,0,0,1,.8-.761c1.322-.017,2.653-.017,3.975,0A.681.681,0,0,1,330.906,57.363Z" transform="translate(-321.713 -39.135)" fill="#040405"/>
  <path id="Path_64" data-name="Path 64" d="M340.142,57.406c-.035.519-.389.674-.848.674h-5.1c-.467,0-.8-.181-.856-.682a.806.806,0,0,1,.864-.769q2.554-.014,5.09.008C339.831,56.637,340.177,56.974,340.142,57.406Z" transform="translate(-322.401 -39.135)" fill="#040405"/>
  <path id="Path_65" data-name="Path 65" d="M353.528,68.034q-3.724-.071-7.449,0a2.4,2.4,0,0,0-2.509,2.478q-.069,2.814,0,5.63a2.4,2.4,0,0,0,2.623,2.46q1.819,0,3.638,0h3.578a2.4,2.4,0,0,0,2.637-2.6q.016-2.669,0-5.338A2.4,2.4,0,0,0,353.528,68.034Z" transform="translate(-323.285 -40.12)" fill="none"/>
  <path id="Path_66" data-name="Path 66" d="M347.812,65.823c.76-.02,1.521-.005,2.281,0h1.228c1.891,0,1.891,0,1.63-1.913a2.813,2.813,0,0,0-2.618-2.475,2.782,2.782,0,0,0-2.963,2.272,14.17,14.17,0,0,0-.1,1.569C347.24,65.67,347.4,65.834,347.812,65.823Z" transform="translate(-323.608 -39.551)" fill="none"/>
  <path id="Path_67" data-name="Path 67" d="M360.469,48.494a8,8,0,0,0-.182-1.625,6.7,6.7,0,0,0-6.551-5.316c-4.269.052-8.53.017-12.8.017-2.506,0-5-.008-7.51-.008q-2.813,0-5.627.017a6.25,6.25,0,0,0-4.8,2.342,6.832,6.832,0,0,0-1.626,4.6q-.012,7.338,0,14.675a10.922,10.922,0,0,0,.1,1.4,6.692,6.692,0,0,0,6.793,6.007h10.856c1,0,1.122,0,1.122.976v-3.25c-.026,1.038-.138.821-1.192.821-3.517,0-7.044.008-10.562,0a5.3,5.3,0,0,1-5.5-4.261,3.7,3.7,0,0,1-.069-.691c0-3.431.009-6.854-.017-10.276,0-.579.2-.718.743-.718q17.293.026,34.57,0c.562,0,.734.164.726.735-.017,3.4.026,6.8-.017,10.206a4.9,4.9,0,0,1-2.679,4.321,1.082,1.082,0,0,1-.277.112.874.874,0,0,1-.216,0l-.06,2.17a.762.762,0,0,1,.562-.658,6.605,6.605,0,0,0,4.218-6.455C360.512,58.588,360.486,53.541,360.469,48.494Zm-1.539,2.4c0,.777,0,.786-.769.786H323.729c-.813,0-.83-.009-.813-.8a23.837,23.837,0,0,1,.156-3.855,5.041,5.041,0,0,1,4.987-4q12.872-.012,25.754,0a5.155,5.155,0,0,1,5.116,5.116Z" transform="translate(-321.363 -37.829)" fill="#040405"/>
  <path id="Path_68" data-name="Path 68" d="M357.381,68.965a3.779,3.779,0,0,0-2.733-3.007.7.7,0,0,1-.586-.824,10.311,10.311,0,0,0-.11-1.982,4.382,4.382,0,0,0-8.66.884.836.836,0,0,0,0,.117,1.667,1.667,0,0,1-1.237,2.122,3.41,3.41,0,0,0-2.155,3.4l0,3.473c0,.763,0,1.525,0,2.288a3.926,3.926,0,0,0,3.89,4.019c2.581.055,5.165.05,7.746,0a3.965,3.965,0,0,0,3.938-4.105c0-.939.023-1.879-.009-2.817l.064-2.383C357.476,69.734,357.46,69.343,357.381,68.965Zm-10.476-5.411a2.782,2.782,0,0,1,2.963-2.272,2.812,2.812,0,0,1,2.618,2.475c.26,1.913.26,1.913-1.63,1.913h-1.228c-.761,0-1.522-.016-2.281,0-.408.011-.572-.153-.544-.551A14.177,14.177,0,0,1,346.905,63.554Zm9,11.729a2.4,2.4,0,0,1-2.637,2.6h-3.578q-1.819,0-3.638,0a2.4,2.4,0,0,1-2.623-2.46q-.071-2.814,0-5.63a2.4,2.4,0,0,1,2.509-2.478q3.724-.075,7.449,0a2.4,2.4,0,0,1,2.518,2.629Q355.92,72.613,355.9,75.283Z" transform="translate(-323.143 -39.402)" fill="#8bc7b5"/>
</svg>
