<svg xmlns="http://www.w3.org/2000/svg" width="13.116" height="13.191" viewBox="0 0 13.116 13.191">
  <path id="Path_11" data-name="Path 11" d="M1493.737,878.7a.6.6,0,0,1,.368-.352q6.046-2.593,12.091-5.191a.439.439,0,0,1,.5.024.469.469,0,0,1,.156.453c-.017.127-.041.252-.061.378q-.211,1.359-.421,2.719l-.447,2.881q-.212,1.366-.425,2.732c-.091.586-.18,1.172-.277,1.758-.064.388-.315.525-.648.361q-.969-.478-1.937-.958c-.247-.122-.247-.122-.446.078l-2.621,2.627-.08.075c0-.051-.008-.085-.008-.118q0-2.062,0-4.125a.349.349,0,0,1,.078-.2q2.017-2.443,4.041-4.881c.9-1.089,1.8-2.177,2.7-3.28a.834.834,0,0,0-.075.052q-4.124,3.639-8.247,7.281a.227.227,0,0,1-.3.04q-1.781-.9-3.571-1.773a.644.644,0,0,1-.366-.358Z" transform="translate(-1493.737 -873.089)" fill="#8bc7b5"/>
</svg>
