<svg id="Group_9" data-name="Group 9" xmlns="http://www.w3.org/2000/svg" width="135.7" height="82.533" viewBox="0 0 135.7 82.533">
  <path id="Path_49" data-name="Path 49" d="M148.636,54.488c-1.9,0-3.789-.018-5.684,0-2.026.025-4.057.208-6.076.1A7.164,7.164,0,0,1,130.7,50.7c-.769-1.4-1.394-2.884-2.048-4.345-1.626-3.642-3.056-4.528-7.3-4.464a7.911,7.911,0,0,0-7.361,4.826c-.107.262-.186.534-.3.793-.386.885-1.023,1.425-2,1.034a1.529,1.529,0,0,1-.909-2.082,9.97,9.97,0,0,1,4.263-5.8,12.421,12.421,0,0,1,11.9-.97,7.135,7.135,0,0,1,3.664,3.588c.764,1.513,1.472,3.059,2.122,4.625a5.523,5.523,0,0,0,5.779,3.655c1.7-.056,3.394-.114,5.085-.237a21.444,21.444,0,0,1,9.166,1.291,4.908,4.908,0,0,0,2.183.324c-.335-.244-.679-.476-1-.737a48.785,48.785,0,0,1-5.1-4.222c-3-3.2-2.513-7.377,1.1-9.888,4.394-3.052,10.8-3.527,16.251,1.389a26.92,26.92,0,0,1,6.858,9.921c.234.567.462,1.135.7,1.7.033.08.13.13.357.344a14.639,14.639,0,0,1,1.043-1.2c2.477-2.3,4.819-4.788,7.495-6.836,3.3-2.525,6.928-2.455,9.528-.291a8.423,8.423,0,0,1,2.013,10.156c-.129.29-.221.6-.366.99.78.156,1.461.277,2.136.427a11.126,11.126,0,0,1,8.838,10.7c.011.378.038.757.013,1.131-.071,1.043.44,1.428,1.439,1.419,2.31-.022,4.622.025,6.934,0a8.9,8.9,0,0,1,8.552,5.2c2.408,4.647,4.9,9.253,7.142,13.979a16.038,16.038,0,0,1,1.284,5.42,38.114,38.114,0,0,1-.139,6.488,10.87,10.87,0,0,1-3.657,6.984,3.392,3.392,0,0,0-.934,1.894,12.716,12.716,0,0,1-3.049,6.959c.646.091,1.037.134,1.423.2.918.167,1.629.57,1.6,1.637-.027,1.135-.782,1.519-1.78,1.6-.234.02-.471.013-.706.013h-18.54a6.422,6.422,0,0,1-.988-.031c-.936-.147-1.765-.661-1.546-1.629a2.422,2.422,0,0,1,1.515-1.508,14.3,14.3,0,0,1,3.241-.067c-.876-2.062-1.615-3.968-2.524-5.791-.181-.364-1.016-.565-1.551-.567-7.359-.036-14.716-.025-22.075-.025-3.02,0-6.039.031-9.057-.016a1.627,1.627,0,0,0-1.89,1.36,43.6,43.6,0,0,1-2.259,4.933c.476.022.972.065,1.468.065,3.4.007,6.792-.005,10.189.014a3.25,3.25,0,0,1,1.638.255,2.016,2.016,0,0,1,.909,1.39,1.957,1.957,0,0,1-.932,1.376,3.843,3.843,0,0,1-1.785.234q-19.527.016-39.056.007c-2.047,0-2.913-.512-2.869-1.685.04-1.113.874-1.584,2.84-1.586q5.024-.005,10.047,0h1.653c-.793-1.472-1.792-2.668-2.084-4.017a7.573,7.573,0,0,0-3.449-4.91c-3.065-2.14-4.3-5.444-4.316-9.111-.049-10.33-.08-20.661.013-30.991a11.2,11.2,0,0,1,6.458-10.5c.244-.123.473-.279.708-.418ZM178.511,81.6c0-7.45-.024-14.9.022-22.349.007-1.282-.416-1.783-1.709-1.736-1.923.067-3.851.013-5.777.018s-1.962.027-1.962,1.979q-.005,21.075.014,42.152a19.829,19.829,0,0,0,.369,2.5c.143,1.077.806,1.323,1.79,1.294,1.79-.052,3.583-.007,5.375-.016,1.859-.007,1.874-.014,1.876-1.914Q178.517,92.559,178.511,81.6ZM155.246,73.66c3.063,0,6.124-.014,9.186.009.941.007,1.539-.221,1.533-1.318-.02-4.522-.014-9.044-.007-13.567,0-.9-.424-1.258-1.3-1.253-3.954.018-7.911-.114-11.86.051-4.939.206-8.025,3.577-8.074,8.538-.022,2.026.04,4.052-.02,6.076-.034,1.121.427,1.49,1.5,1.477C149.216,73.634,152.232,73.66,155.246,73.66Zm36.406,0c2.873,0,5.744-.025,8.617.013,1.079.014,1.519-.377,1.49-1.488-.06-2.259.034-4.522-.038-6.78a7.8,7.8,0,0,0-6.852-7.623c-4.07-.331-8.179-.177-12.271-.223-1.028-.011-1.041.733-1.041,1.477,0,4.379.024,8.758-.014,13.138-.009,1.1.406,1.513,1.492,1.5C185.906,73.634,188.779,73.66,191.652,73.66Zm-.018,16.163v0c-2.782,0-5.565.031-8.347-.016-1.222-.02-1.78.333-1.756,1.687q.109,6.153,0,12.309c-.024,1.351.516,1.68,1.751,1.658,3.489-.063,6.979-.014,10.469-.042a8.009,8.009,0,0,0,7.973-7.752c.071-2.12-.027-4.245.038-6.365.034-1.126-.434-1.5-1.5-1.486C197.387,89.844,194.51,89.822,191.634,89.822Zm33.1,13.257a6.612,6.612,0,0,0,2.174-4.41c.118-2.491.091-4.993.029-7.488a5.24,5.24,0,0,0-.579-2.158q-3.769-7.441-7.64-14.836a5.65,5.65,0,0,0-5.19-3.117c-2.406-.047-4.812.027-7.216-.029-1.1-.025-1.528.393-1.5,1.483.042,1.883.005,3.767.005,5.652,0,6.363-.025,12.729.007,19.092a11.446,11.446,0,0,1-2.288,6.992c-.21.288-.38.6-.61.972,1.383.434,2.134.232,2.607-1.238a10.166,10.166,0,0,1,9.434-7.538c4.361-.34,7.73,1.655,10.017,5.408C224.193,102.216,224.414,102.565,224.732,103.08Zm-69.32-26.339c-3.065,0-6.13.024-9.195-.014-1.054-.013-1.548.3-1.517,1.454.063,2.355.056,4.714,0,7.071-.025,1.1.378,1.488,1.479,1.483q9.124-.052,18.246,0c1.068.005,1.561-.339,1.544-1.445q-.049-3.536,0-7.073c.014-1.074-.406-1.51-1.51-1.492C161.448,76.772,158.43,76.741,155.412,76.741Zm36.256,9.977c2.831,0,5.663-.033,8.492.016,1.11.02,1.637-.291,1.6-1.51-.069-2.357-.052-4.718-.007-7.075.02-1.036-.375-1.425-1.4-1.419q-8.7.038-17.408,0c-1.046-.005-1.412.429-1.4,1.441.04,2.357.047,4.718,0,7.075-.024,1.1.4,1.5,1.494,1.486C185.913,86.685,188.792,86.716,191.668,86.718ZM171.479,54.392c-.567-1.577-.943-2.83-1.457-4.024-1.823-4.245-4.33-7.985-8.485-10.27a9.029,9.029,0,0,0-9.655.5c-2.171,1.369-2.368,3.5-.661,5.393a10.085,10.085,0,0,0,1.986,1.8c3.416,2.172,6.876,4.276,10.324,6.4a1.121,1.121,0,0,0,.521.2C166.4,54.4,168.737,54.392,171.479,54.392ZM165.9,98.46c0-2.754.04-5.321-.058-7.884-.009-.266-.82-.715-1.264-.719-6.173-.047-12.347-.02-18.52-.04-1.064,0-1.372.489-1.349,1.477.049,2.167.011,4.336.033,6.5a7.209,7.209,0,0,0,1.874,4.765,20.389,20.389,0,0,0,2.055,1.8C153.171,96.17,157.313,94.739,165.9,98.46Zm48.771,16.461a7.4,7.4,0,0,0,7.6-7.58,7.612,7.612,0,0,0-7.578-7.826,7.478,7.478,0,0,0-7.578,7.651A7.385,7.385,0,0,0,214.667,114.921ZM166.8,107.24a7.575,7.575,0,1,0-15.147-.04,7.575,7.575,0,1,0,15.147.04Zm9.528-53.255.243.666c4-.239,8.023-.351,12.006-.778a3.78,3.78,0,0,0,3.257-3.306,4.876,4.876,0,0,0-1.751-5.054,3.873,3.873,0,0,0-4.989.094c-2.484,1.906-4.788,4.052-7.1,6.168A14.607,14.607,0,0,0,176.324,53.985Z" transform="translate(-94.55 -35.787)" fill="#040405"/>
  <path id="Path_50" data-name="Path 50" d="M121.583,72.265q8.627,0,17.256,0c.424,0,.961-.129,1.245.078.55.4,1.356,1.021,1.325,1.5-.04.594-.782,1.186-1.309,1.682-.183.172-.635.074-.963.071q-17.61-.119-35.217-.25c-.375,0-.871.076-1.1-.123-.458-.4-1.054-.969-1.057-1.472a2.1,2.1,0,0,1,1.045-1.448,3.9,3.9,0,0,1,1.8-.185q8.486-.016,16.972-.007Z" transform="translate(-101.767 -6.352)" fill="#8bc7b5"/>
  <path id="Path_51" data-name="Path 51" d="M122.91,65.8c2.916,0,5.835.007,8.751,0,1.137,0,2.113.219,2.214,1.593.085,1.121-.684,1.736-2.223,1.725-5.927-.04-11.856-.112-17.783-.161-1.148-.009-2.015-.434-1.97-1.676.04-1.153.892-1.528,1.977-1.521,3.011.018,6.023.005,9.034.005Z" transform="translate(-93.557 -11.499)" fill="#8bc7b5"/>
  <path id="Path_52" data-name="Path 52" d="M123.378,62.571c-1.5,0-3.009.027-4.513-.011-1.025-.025-1.731-.5-1.7-1.635.034-1.112.722-1.564,1.769-1.562q4.443,0,8.887.018c1.1.005,1.825.482,1.823,1.667,0,1.137-.764,1.57-1.756,1.6-1.5.049-3.009.013-4.513.013Z" transform="translate(-89.287 -16.682)" fill="#8bc7b5"/>
  <path id="Path_53" data-name="Path 53" d="M163.487,65.77c0-1.932-.027-3.865.009-5.8a3.021,3.021,0,0,1,3.269-3.251c1.412-.029,2.826.016,4.24-.009a2.981,2.981,0,0,1,2.866,1.705c2.076,3.91,4.178,7.808,6.171,11.76,1.235,2.449-.107,4.633-2.853,4.689-3.438.072-6.879.058-10.317.005-2.254-.034-3.34-1.2-3.385-3.449,0-.094,0-.188,0-.282Q163.485,68.455,163.487,65.77Zm13.5,5.961c0-.378.034-.489,0-.561-1.868-3.59-3.728-7.185-5.628-10.757-.377-.711-3.9-.976-4.461-.369a1.246,1.246,0,0,0-.275.773c-.02,3.295-.043,6.591.02,9.886.007.348.55.976.854.983C170.634,71.758,173.779,71.731,176.985,71.731Z" transform="translate(-51.76 -18.83)" fill="#040405"/>
</svg>
