<svg xmlns="http://www.w3.org/2000/svg" width="14.063" height="13.058" viewBox="0 0 14.063 13.058">
  <path id="Icon_ionic-ios-star" data-name="Icon ionic-ios-star" d="M15.779,7.9H11.162l-1.4-4.187a.508.508,0,0,0-.954,0L7.4,7.9H2.752a.5.5,0,0,0-.5.5.369.369,0,0,0,.009.085.483.483,0,0,0,.21.355l3.8,2.674L4.808,15.746a.5.5,0,0,0,.173.565.486.486,0,0,0,.283.122.615.615,0,0,0,.314-.113l3.7-2.64,3.7,2.64a.588.588,0,0,0,.314.113.451.451,0,0,0,.279-.122.5.5,0,0,0,.173-.565l-1.456-4.234,3.764-2.7.091-.078a.48.48,0,0,0-.37-.838Z" transform="translate(-2.25 -3.375)" fill="#fcb900"/>
</svg>
