<svg xmlns="http://www.w3.org/2000/svg" width="16.134" height="14.27" viewBox="0 0 16.134 14.27">
  <path id="Path_137" data-name="Path 137" d="M-1080.96,901.226c.045-.245.078-.493.137-.734a4.311,4.311,0,0,1,2.422-3.085,3.924,3.924,0,0,1,4.335.629,5.36,5.36,0,0,1,1.094,1.368c.021.038.045.075.069.115.167-.25.319-.5.494-.737a4.238,4.238,0,0,1,2.045-1.548,3.854,3.854,0,0,1,2-.132,4.137,4.137,0,0,1,3.12,2.544,4.935,4.935,0,0,1,.385,2.6,5.581,5.581,0,0,1-.945,2.469,12.053,12.053,0,0,1-2.064,2.345c-1.316,1.176-2.657,2.325-3.988,3.485q-.349.3-.7.608a.474.474,0,0,1-.678,0c-1.417-1.225-2.84-2.442-4.246-3.679a15.5,15.5,0,0,1-2.19-2.307,6.277,6.277,0,0,1-1.191-2.483c-.041-.2-.066-.395-.1-.593Zm8.063,8.951c.025-.019.04-.029.053-.04,1.242-1.071,2.491-2.132,3.722-3.216a14.587,14.587,0,0,0,2.443-2.616,4.422,4.422,0,0,0,.86-3.184,3.607,3.607,0,0,0-1.383-2.5,3.041,3.041,0,0,0-2.393-.593,2.975,2.975,0,0,0-1.75.97,5.217,5.217,0,0,0-1.068,1.815.857.857,0,0,1-.095.206.444.444,0,0,1-.429.2.467.467,0,0,1-.412-.336,5.453,5.453,0,0,0-.695-1.386,3.121,3.121,0,0,0-2.906-1.494,2.914,2.914,0,0,0-1.653.632,3.79,3.79,0,0,0-1.379,3.513,4.568,4.568,0,0,0,.88,2.177,11.534,11.534,0,0,0,1.776,1.992c1.024.924,2.069,1.825,3.108,2.733C-1073.783,909.424-1073.341,909.8-1072.9,910.177Z" transform="translate(1080.96 -897.021)" fill="#e03346"/>
</svg>
