<svg xmlns="http://www.w3.org/2000/svg" width="29.136" height="20.363" viewBox="0 0 29.136 20.363">
  <path id="Icon_simple-youtube" data-name="Icon simple-youtube" d="M28.535,8.568A3.652,3.652,0,0,0,26,6.032c-2.271-.608-11.411-.608-11.411-.608s-9.117-.012-11.411.608A3.652,3.652,0,0,0,.641,8.568a37.948,37.948,0,0,0-.634,7.05,37.948,37.948,0,0,0,.634,7.023,3.652,3.652,0,0,0,2.536,2.536c2.269.61,11.411.61,11.411.61s9.116,0,11.411-.61a3.652,3.652,0,0,0,2.536-2.536,37.948,37.948,0,0,0,.607-7.023A37.948,37.948,0,0,0,28.535,8.568ZM11.671,19.979V11.244l7.607,4.374Z" transform="translate(-0.007 -5.424)" fill="#fff"/>
</svg>
